<svg version="1.1" id="Layer_1" xmlns="http://www.w3.org/2000/svg" xmlns:xlink="http://www.w3.org/1999/xlink" x="0px" y="0px"
	 width="100%" viewBox="0 0 240 240" enable-background="new 0 0 240 240" xml:space="preserve">
<path fill="#000000" opacity="1.000000" stroke="none" 
	d="
M129.405792,211.058517 
	C124.599312,211.726486 120.444405,211.035873 116.275925,209.479279 
	C96.785530,202.201126 78.920601,192.585526 66.264648,175.345276 
	C57.314716,163.153458 52.817978,149.407745 52.707581,134.325851 
	C52.564880,114.830299 52.641819,95.332886 52.679100,75.836388 
	C52.699104,65.374237 58.794651,59.341206 69.242676,58.590370 
	C84.555840,57.489906 97.652451,50.816212 109.657639,41.674274 
	C112.960106,39.159462 115.940338,36.024158 120.167488,35.125633 
	C126.536072,33.771927 132.242981,35.052059 137.411865,39.362225 
	C148.840149,48.891884 161.566971,55.896721 176.509247,58.215595 
	C177.657425,58.393780 178.813156,58.571281 179.971375,58.629387 
	C191.731949,59.219376 197.339233,65.149864 197.345764,77.077423 
	C197.355347,94.574341 197.077728,112.076363 197.406937,129.567093 
	C197.992004,160.652771 183.660263,182.890503 157.559631,198.450043 
	C148.785660,203.680511 139.426651,207.575760 129.405792,211.058517 
M153.442947,69.240463 
	C144.663635,65.483078 136.425064,60.770042 129.085724,54.662247 
	C126.166916,52.233215 124.209541,51.971287 121.002525,54.544540 
	C107.396858,65.461487 92.140839,73.092255 74.619003,75.131310 
	C70.588921,75.600311 69.222610,76.609413 69.269119,80.714424 
	C69.461639,97.707260 69.135254,114.707130 69.419281,131.697403 
	C69.635551,144.634857 73.108437,156.651367 81.372780,166.976868 
	C88.947701,176.440994 99.055374,182.351318 109.442848,188.203491 
	C119.983925,194.142227 129.845566,195.063675 140.179993,188.290085 
	C143.789093,185.924545 147.853363,184.260559 151.508408,181.956726 
	C167.411758,171.932693 178.061218,158.265091 179.866791,139.015457 
	C181.752106,118.915680 180.251343,98.742493 180.646378,78.606453 
	C180.692001,76.281097 179.532211,75.419922 177.283142,75.296776 
	C169.214874,74.855034 161.575394,72.618851 153.442947,69.240463 
z"/>
</svg>